<?xml version="1.0" standalone="no"?>
<!DOCTYPE svg PUBLIC "-//W3C//DTD SVG 20010904//EN"
 "http://www.w3.org/TR/2001/REC-SVG-20010904/DTD/svg10.dtd">
<svg version="1.0" xmlns="http://www.w3.org/2000/svg"
 width="260.000000pt" height="260.000000pt" viewBox="0 0 260.000000 260.000000"
 preserveAspectRatio="xMidYMid meet">
<metadata>
Created by potrace 1.14, written by Peter Selinger 2001-2017
</metadata>
<g transform="translate(0.000000,260.000000) scale(0.100000,-0.100000)"
fill="#000000" stroke="none">
<path d="M0 1300 l0 -1300 1300 0 1300 0 0 1300 0 1300 -1300 0 -1300 0 0
-1300z m2161 360 c53 -14 124 -65 163 -118 19 -26 32 -50 30 -54 -3 -4 -34
-23 -70 -42 l-65 -34 -17 25 c-9 14 -34 39 -56 54 -76 56 -196 30 -196 -42 0
-62 39 -95 170 -144 94 -35 135 -61 182 -113 63 -69 77 -177 34 -268 -45 -97
-149 -154 -280 -154 -125 0 -228 52 -302 153 -24 33 -44 62 -44 66 1 6 116 86
124 86 3 0 18 -19 35 -42 64 -88 157 -129 236 -103 41 13 63 42 66 85 5 72
-21 96 -167 156 -131 53 -174 85 -215 162 -28 53 -28 151 0 205 58 113 212
163 372 122z m-1450 -24 c98 -36 166 -121 176 -221 12 -111 -36 -211 -124
-261 -26 -15 -49 -29 -51 -30 -2 -1 23 -40 55 -85 33 -46 85 -121 117 -166
l57 -83 -104 0 -105 0 -98 153 c-54 83 -102 154 -106 157 -6 5 -32 5 -70 1 -5
-1 -8 -71 -8 -156 l0 -155 -90 0 -90 0 0 428 c0 236 3 432 8 436 4 4 93 6 197
4 147 -4 200 -9 236 -22z m927 10 c-2 -8 -117 -247 -257 -530 l-254 -516 -79
0 c-43 0 -78 2 -78 5 0 3 118 241 262 530 l263 525 73 0 c58 0 73 -3 70 -14z"/>
<path d="M450 1380 l0 -130 83 0 c65 0 89 4 115 20 41 25 66 81 57 126 -14 76
-80 114 -199 114 l-56 0 0 -130z"/>
</g>
</svg>
